<?xml version="1.0" encoding="utf-8"?>
<!-- Generator: Adobe Illustrator 19.0.0, SVG Export Plug-In . SVG Version: 6.00 Build 0)  -->
<svg version="1.1" id="Livello_1" xmlns="http://www.w3.org/2000/svg" xmlns:xlink="http://www.w3.org/1999/xlink" x="0px" y="0px"
	 viewBox="0 0 100 50" style="enable-background:new 0 0 100 50;" xml:space="preserve">
<style type="text/css">
	.st0{fill:#010101;}
</style>
<g id="Text">
	<path id="n" class="st0" d="M94.5,24.4c0.6-0.6,1.4-0.9,2.3-0.9c2.6,0,3.2,1.7,3.2,3.9v5.1c0,0.1-0.1,0.2-0.2,0.2h-1.6
		c-0.1,0-0.2-0.1-0.2-0.2v-4.9c0-1.3-0.2-2.2-1.6-2.2c-1.8,0-1.8,1.7-1.8,3.2v3.9c0,0.1-0.1,0.2-0.2,0.2h-1.6
		c-0.1,0-0.2-0.1-0.2-0.2v-8.6c0-0.1,0.1-0.2,0.2-0.2h1.6c0.1,0,0.2,0.1,0.2,0.2L94.5,24.4z"/>
	<path id="o" class="st0" d="M91.3,27.9c0,2.7-2,4.8-4.7,4.8c-2.6,0-4.7-2.1-4.7-4.8c0-2.7,2.1-4.8,4.7-4.8
		C89.3,23.1,91.3,25.2,91.3,27.9 M84,27.9c0,1.5,1.2,2.8,2.6,2.8c1.5,0,2.6-1.3,2.6-2.8c0-1.5-1.2-2.8-2.6-2.8
		C85.2,25.2,84,26.4,84,27.9"/>
	<path id="t" class="st0" d="M76.9,25.6h-1.5c-0.1,0-0.2-0.1-0.2-0.2v-1.6c0-0.1,0.1-0.2,0.2-0.2h0.3c1.2,0,1.2-0.9,1.2-1.3v-1
		c0-0.1,0.1-0.2,0.2-0.2h1.6c0.1,0,0.2,0.1,0.2,0.2v2.3h2c0.1,0,0.2,0.1,0.2,0.2v1.6c0,0.1-0.1,0.2-0.2,0.2h-2v2.9
		c0,0.7-0.1,1.9,0.8,2.1c0.5,0.1,0.7-0.1,1-0.2c0,0,0.1,0,0.1,0c0.1,0,0.2,0.1,0.2,0.2v1.6c0,0.1-0.1,0.2-0.2,0.2h0
		c-0.4,0.2-0.9,0.2-1.3,0.2c-2.2,0-2.8-1.6-2.8-3.6L76.9,25.6L76.9,25.6z"/>
	<path id="e" class="st0" d="M68.2,28.6c0.1,1.3,1,2.2,2.3,2.2c1.1,0,1.6-0.6,2.2-1.6c0.1-0.1,0.2-0.1,0.3-0.1l1.4,0.8
		c0.1,0.1,0.2,0.2,0.1,0.3v0c-0.8,1.6-2.3,2.5-4,2.5c-2.7,0-4.3-2.1-4.3-4.7c0-2.8,1.5-4.8,4.3-4.8s4.2,2.4,4.2,5v0.3
		c0,0.1-0.1,0.2-0.2,0.2H68.2z M72.5,26.8c-0.3-1-1-1.8-2-1.8c-1,0-1.8,0.9-2,1.8H72.5z"/>
	<path id="l" class="st0" d="M64.8,32.5c0,0.1-0.1,0.2-0.2,0.2H63c-0.1,0-0.2-0.1-0.2-0.2V17.8c0-0.1,0.1-0.2,0.2-0.2h1.6
		c0.1,0,0.2,0.1,0.2,0.2C64.8,17.8,64.8,32.5,64.8,32.5z"/>
	<path id="b" class="st0" d="M52.6,17.5c0-0.1,0.1-0.2,0.2-0.2h1.6c0.1,0,0.2,0.1,0.2,0.2v6.8c0.7-0.8,1.6-1.2,2.7-1.2
		c2.6,0,4.1,2.2,4.1,4.7c0,2.6-1.5,4.8-4.2,4.8c-1,0-1.9-0.5-2.6-1.2v0.7c0,0.1-0.1,0.2-0.2,0.2h-1.6c-0.1,0-0.2-0.1-0.2-0.2
		L52.6,17.5L52.6,17.5z M59.5,27.9c0-1.5-0.9-2.8-2.5-2.8c-1.5,0-2.4,1.4-2.4,2.8c0,1.5,0.9,2.9,2.4,2.9
		C58.6,30.8,59.5,29.5,59.5,27.9"/>
	<path id="A" class="st0" d="M41.9,29.2l-1.5,3.4c0,0.1-0.2,0.2-0.2,0.2h-1.8c-0.2,0-0.3-0.2-0.2-0.3l6.5-14.6
		c0.1-0.2,0.4-0.2,0.4,0c2.1,4.8,4.4,9.9,6.5,14.6c0.1,0.2,0,0.3-0.2,0.3h-1.8c-0.1,0-0.2-0.1-0.2-0.2c-0.5-1.1-1-2.3-1.5-3.4
		L41.9,29.2L41.9,29.2z M44.8,22.3l-2.1,4.9h4.2L44.8,22.3z"/>
</g>
<path id="Icon" class="st0" d="M2.1,32.5c0,0.1-0.1,0.2-0.2,0.2H0.2c-0.1,0-0.2-0.1-0.2-0.2V17.7c0-0.1,0.1-0.2,0.2-0.2h1.6
	c0.1,0,0.2,0.1,0.2,0.2L2.1,32.5L2.1,32.5z M6.3,32.5c0,0.1-0.1,0.2-0.2,0.2H4.5c-0.1,0-0.2-0.1-0.2-0.2V17.7c0-0.1,0.1-0.2,0.2-0.2
	h1.6c0.1,0,0.2,0.1,0.2,0.2L6.3,32.5L6.3,32.5z M10.5,32.5c0,0.1-0.1,0.2-0.2,0.2H8.7c-0.1,0-0.2-0.1-0.2-0.2V17.7
	c0-0.1,0.1-0.2,0.2-0.2h1.6c0.1,0,0.2,0.1,0.2,0.2V32.5z M14.8,32.5c0,0.1-0.1,0.2-0.2,0.2h-1.6c-0.1,0-0.2-0.1-0.2-0.2V17.7
	c0-0.1,0.1-0.2,0.2-0.2h1.6c0.1,0,0.2,0.1,0.2,0.2V32.5z M31.4,17.5c0.1,0,0.2,0.1,0.2,0.2v1.7c0,0.1-0.1,0.3-0.2,0.3H17.1
	c-0.1,0-0.2-0.1-0.2-0.3v-1.7c0-0.1,0.1-0.2,0.2-0.2C17.1,17.5,31.4,17.5,31.4,17.5z M31.4,21.9c0.1,0,0.2,0.1,0.2,0.2v1.7
	c0,0.1-0.1,0.3-0.2,0.3H17.1c-0.1,0-0.2-0.1-0.2-0.3v-1.7c0-0.1,0.1-0.2,0.2-0.2H31.4z M31.4,26.2c0.1,0,0.2,0.1,0.2,0.2v1.7
	c0,0.1-0.1,0.3-0.2,0.3H17.1c-0.1,0-0.2-0.1-0.2-0.3v-1.7c0-0.1,0.1-0.2,0.2-0.2H31.4z M31.4,30.6c0.1,0,0.2,0.1,0.2,0.2v1.7
	c0,0.1-0.1,0.3-0.2,0.3H17.1c-0.1,0-0.2-0.1-0.2-0.3v-1.7c0-0.1,0.1-0.2,0.2-0.2H31.4z"/>
</svg>
