<?xml version="1.0" encoding="utf-8"?>
<!-- Generator: Adobe Illustrator 23.1.1, SVG Export Plug-In . SVG Version: 6.00 Build 0)  -->
<svg version="1.1" id="Layer_1" xmlns="http://www.w3.org/2000/svg" xmlns:xlink="http://www.w3.org/1999/xlink" x="0px" y="0px"
	 viewBox="0 0 416 95" style="enable-background:new 0 0 416 95;" xml:space="preserve">
<style type="text/css">
	.st0{fill-rule:evenodd;clip-rule:evenodd;}
</style>
<title>wordmark-reason</title>
<desc>Created with Sketch.</desc>
<g id="wordmark-reason">
	<path id="Shape" class="st0" d="M275.2,47.8h-15.3c-0.7-5.8-5.1-10.5-12.1-10.3l-1.4,0.1c-5.9,0.3-10,3.3-9.8,7.9
		c0.2,4,3.3,6,9.4,7l9.7,1.8c11.7,2.1,18.9,7.7,19.5,18.9c0.5,11.6-8.9,20.7-25.8,21.5c-17.9,0.8-29.9-8.9-29.9-22.8H235
		c0.3,6.9,6.7,11,13.7,10.7l1.1,0c6.1-0.3,10.4-3.4,10.2-7.9c-0.2-3.8-2.5-6.1-7.9-7l-9.6-1.6l-0.9-0.2
		c-12.2-2.4-19.7-7.8-20.2-18.6c-0.6-12.5,10-21,25.2-21.7C263.9,24.6,275.2,34.3,275.2,47.8z M110.4,25.4
		c18.9,0,29.6,13.5,29.6,31.9c0,2.3-0.1,4.5-0.3,6.8H94c0.8,11.7,9.1,18.2,16.7,18.2h1.1c6.5,0,11.5-3.7,12.8-9.3h15.2
		c-2.8,13.3-13.7,21.9-29.1,21.9C94,94.7,79.1,82.6,79.1,60C79.1,38.7,92.3,25.4,110.4,25.4z M176.5,25.3c10.9,0,17.3,5.1,20.5,10.7
		v-9.3h15.3v66.7h-15.3v-9.3c-3.3,5.6-9.6,10.7-20.5,10.7c-14.8,0-29-11.9-29-34.7S161.1,25.3,176.5,25.3z M315.1,25.3
		c19.2,0,32.8,14.4,32.8,34.7c0,20.3-13.6,34.7-32.8,34.7c-19.1,0-32.7-14.4-32.7-34.7C282.4,39.8,296,25.3,315.1,25.3z M391.5,25.4
		c15.7,0,23.6,10.1,23.6,24.5v43.5h-15.3V52.2c0-8.9-4-14.3-11.9-14.3h-1.1c-8.5,0-16,7.5-16,18.3v37.2h-15.3V26.7h15.3v9.6
		C374.8,29.9,382,25.4,391.5,25.4z M42,0c16.5,0,29,10.7,29,25.4c0,11.9-5.9,20.1-15.6,23.6c10.3,0,14.3,4.4,14.3,13.2v31.2h-16
		V66.2c0-6.8-1.9-8.9-8.6-8.9l-29,0v36.2H0V0H42z M180.4,37.9h-1.2c-8.9,0-16.3,8.4-16.3,22c0,13.7,7.3,22.3,16.3,22.3h1.2
		c8.8,0,16.7-7.9,16.7-22.1C197.1,45.8,189.2,37.9,180.4,37.9z M315.6,37.9h-1.1c-9.9,0-16.8,8.1-16.8,22.1c0,14,6.9,22.1,16.8,22.1
		h1.1c10,0,16.8-8.1,16.8-22.1C332.4,46,325.6,37.9,315.6,37.9z M110.7,37.9h-1.1c-7.2,0-14,4.5-15.2,14.3H125
		C124.5,42.6,118.1,37.9,110.7,37.9z M38,14.3H16v28.8h22c11.1,0,16.9-6,16.9-14.9C55,19,49.1,14.3,38,14.3z"/>
</g>
</svg>
