<?xml version="1.0" encoding="utf-8"?>
<!-- Generator: Adobe Illustrator 19.0.0, SVG Export Plug-In . SVG Version: 6.00 Build 0)  -->
<svg version="1.1" id="Livello_1" xmlns="http://www.w3.org/2000/svg" xmlns:xlink="http://www.w3.org/1999/xlink" x="0px" y="0px"
	 viewBox="0 0 100 50" style="enable-background:new 0 0 100 50;" xml:space="preserve">
<style type="text/css">
	.st0{fill:#010101;}
</style>
<g id="wordmark-reason">
	<path id="Shape" class="st0" d="M63.4,25.1h-3c-0.1-1.2-1-2.1-2.4-2l-0.3,0c-1.2,0.1-2,0.7-1.9,1.6c0,0.8,0.7,1.2,1.9,1.4l1.9,0.4
		c2.3,0.4,3.8,1.5,3.9,3.8c0.1,2.3-1.8,4.1-5.1,4.3c-3.6,0.2-5.9-1.8-5.9-4.5h3.1c0.1,1.4,1.3,2.2,2.7,2.1h0.2
		c1.2-0.1,2.1-0.7,2-1.6c0-0.8-0.5-1.2-1.6-1.4l-1.9-0.3l-0.2,0c-2.4-0.5-3.9-1.5-4-3.7c-0.1-2.5,2-4.2,5-4.3
		C61.2,20.5,63.4,22.4,63.4,25.1z M30.7,20.6c3.8,0,5.9,2.7,5.9,6.3c0,0.5,0,0.9-0.1,1.3h-9.1c0.2,2.3,1.8,3.6,3.3,3.6H31
		c1.3,0,2.3-0.7,2.5-1.8h3c-0.6,2.6-2.7,4.3-5.8,4.3c-3.3,0-6.3-2.4-6.3-6.9C24.5,23.3,27.1,20.6,30.7,20.6z M43.8,20.6
		c2.2,0,3.4,1,4.1,2.1v-1.8h3v13.2h-3v-1.8c-0.7,1.1-1.9,2.1-4.1,2.1c-2.9,0-5.8-2.4-5.8-6.9S40.8,20.6,43.8,20.6z M71.3,20.6
		c3.8,0,6.5,2.9,6.5,6.9s-2.7,6.9-6.5,6.9c-3.8,0-6.5-2.9-6.5-6.9C64.9,23.5,67.6,20.6,71.3,20.6z M86.5,20.6c3.1,0,4.7,2,4.7,4.9
		v8.6h-3v-8.2c0-1.8-0.8-2.8-2.4-2.8h-0.2c-1.7,0-3.2,1.5-3.2,3.6v7.4h-3V20.9h3v1.9C83.2,21.5,84.6,20.6,86.5,20.6z M17.1,15.6
		c3.3,0,5.8,2.1,5.8,5c0,2.4-1.2,4-3.1,4.7c2,0,2.8,0.9,2.8,2.6v6.2h-3.2v-5.4c0-1.3-0.4-1.8-1.7-1.8H12v7.2H8.8V15.6H17.1z
		 M44.6,23.1h-0.2c-1.8,0-3.2,1.7-3.2,4.4c0,2.7,1.4,4.4,3.2,4.4h0.2c1.7,0,3.3-1.6,3.3-4.4C47.9,24.7,46.4,23.1,44.6,23.1z
		 M71.4,23.1h-0.2c-2,0-3.3,1.6-3.3,4.4s1.4,4.4,3.3,4.4h0.2c2,0,3.3-1.6,3.3-4.4S73.4,23.1,71.4,23.1z M30.8,23.1h-0.2
		c-1.4,0-2.8,0.9-3,2.8h6.1C33.5,24,32.2,23.1,30.8,23.1z M16.4,18.4H12v5.7h4.4c2.2,0,3.4-1.2,3.4-3C19.7,19.4,18.6,18.4,16.4,18.4
		z"/>
</g>
</svg>
