<?xml version="1.0" encoding="utf-8"?>
<!-- Generator: Adobe Illustrator 19.0.0, SVG Export Plug-In . SVG Version: 6.00 Build 0)  -->
<svg version="1.1" id="Livello_1" xmlns="http://www.w3.org/2000/svg" xmlns:xlink="http://www.w3.org/1999/xlink" x="0px" y="0px"
	 viewBox="0 0 100 50" style="enable-background:new 0 0 100 50;" xml:space="preserve">
<style type="text/css">
	.st0{fill:#070707;}
</style>
<g id="XMLID_25_" transform="matrix(0.9999998211860657, 0, 0, 0.9999998211860657, -226.7336883544922, -395.5778503417969)">
	
		<g id="XMLID_26_" transform="matrix(1.5030674846625767, 0, 0, 1.5030674846625767, 209.99991596164364, -0.000004600639840646181)">
		<g id="XMLID_27_">
			<path id="XMLID_45_" class="st0" d="M16.3,285.3h2c-0.2-1.8-0.6-5.4-0.9-8.1C17,279.9,16.5,283.5,16.3,285.3 M24.7,279.5
				C24.7,279.5,24.7,279.5,24.7,279.5c0-0.1-0.8-1-1.3-0.7c-0.2,0.1-0.5,0.9-0.5,1.5l-0.4,4.8c0.7-0.1,1.3-0.3,1.6-0.6
				c0.8-0.7,1.1-2.1,1.1-3.3V280L24.7,279.5z M16.7,274.3c-0.3,0-1.2,0-2.2,0c0.2,1.8,0.8,5.8,1.1,8.6c0.4-2.8,0.9-6.8,1.1-8.6
				L16.7,274.3L16.7,274.3z M23,278c0.8-0.4,1.7,0.2,2.2,0.7c0-1.5-0.3-2.7-0.9-3.4c-0.6-0.7-2.2-0.9-3.1-0.9c0.1,1.4,0.4,4.3,0.7,7
				c0-0.3,0.1-1,0.1-1C22,280,22.1,278.4,23,278 M17.9,274.3c0.2,1.8,0.6,5.6,0.9,8.4c0.4-2.8,0.9-6.7,1.2-8.4H17.9z M19.4,285.3
				c0.5,0,1.2,0,1.9,0c-0.2-1.8-0.5-5.3-0.8-8C20.2,280,19.7,283.5,19.4,285.3 M12.6,278.1l0.7-3.5c-0.4,0.1-0.8,0.2-1,0.4
				c-0.9,0.7-1.1,2.3-1.1,3.9v2c0.2,0,0.3-0.1,0.4-0.2C12.1,280.1,12.5,278.6,12.6,278.1 M13.5,278.3c0,0.1-0.4,2.2-1.4,3.1
				c-0.2,0.2-0.6,0.4-1,0.5c0.1,1.1,0.4,1.8,0.7,2.4c0.6,0.9,2.3,1.1,3.2,1.1c-0.3-2.1-0.9-6.4-1.2-8.9
				C13.7,277.3,13.5,278.3,13.5,278.3"/>
			<path id="XMLID_33_" class="st0" d="M75.8,277.5c-0.6-0.2-1.2-0.3-1.8-0.3c-1.3,0-2.8,0.6-2.8,2.3c0,1.8,2.2,1.9,2.2,3
				c0,0.6-0.6,0.8-1.2,0.8c-0.7,0-1.1-0.3-1.6-0.6l-0.4,1.5c0.6,0.3,1.3,0.4,2,0.4c1.5,0,2.9-0.6,2.9-2.4c0-1.7-2.2-2.1-2.2-3
				c0-0.6,0.6-0.7,1.1-0.7c0.5,0,0.9,0.2,1.4,0.3L75.8,277.5z M71.1,277.4h-1.7l-0.7,3.6c-0.2,1.1-0.6,2.3-1.8,2.3
				c-0.5,0-0.9-0.4-0.9-1c0-0.5,0.1-1,0.2-1.5l0.6-3.4h-1.7l-0.7,3.5c-0.1,0.4-0.2,1-0.2,1.6c0,1.4,0.8,2.3,2.1,2.3
				c0.7,0,1.4-0.4,1.8-0.9l-0.1,0.7h1.7c0-0.2,0.1-0.6,0.2-1L71.1,277.4z M57.2,284.5h1.7l0.7-3.6c0.2-1.1,0.6-2.3,1.8-2.3
				c0.5,0,0.9,0.4,0.9,1c0,0.5-0.1,1-0.2,1.5l-0.6,3.4h1.7l0.7-3.5c0.1-0.4,0.2-1,0.2-1.6c0-1.4-0.8-2.3-2.1-2.3
				c-0.7,0-1.4,0.4-1.8,0.9l0.1-0.7h-1.7c0,0.2-0.1,0.6-0.2,1L57.2,284.5z M54.4,277.2c-2.2,0-3.9,1.8-3.9,4.2c0,2,1.1,3.3,3,3.3
				c2.3,0,3.9-1.8,3.9-4.3C57.4,278.4,56.2,277.2,54.4,277.2 M53.7,283.2c-1,0-1.3-0.7-1.3-1.7c0-1.3,0.7-2.9,2-2.9
				c1,0,1.3,0.8,1.3,1.7C55.6,281.6,55,283.2,53.7,283.2 M50.9,275.1c-0.7-0.3-1.5-0.4-2.3-0.4c-1.7,0-3.3,0.9-3.3,2.9
				c0,2.6,3,2.3,3,4c0,1-0.8,1.5-1.7,1.5c-0.8,0-1.5-0.3-2.2-0.7l-0.5,1.7c0.8,0.3,1.7,0.5,2.5,0.5c1.9,0,3.6-0.9,3.6-3.2
				c0-2.7-3-2.6-3-4.1c0-0.8,0.8-1.1,1.5-1.1c0.6,0,1.3,0.2,1.8,0.5L50.9,275.1z M40,280.2c0.3-1,0.8-1.7,1.8-1.7
				c0.7,0,1.1,0.4,1.1,1.2c0,0.2,0,0.3,0,0.5H40z M44.4,281.5c0.1-0.5,0.2-1.1,0.2-1.6c0-1.8-1.1-2.7-2.7-2.7
				c-2.1,0-3.7,2.1-3.7,4.3c0,2.1,1.3,3.1,3.1,3.1c0.7,0,1.4-0.2,2.1-0.4l0.2-1.5c-0.6,0.3-1.3,0.5-2,0.5c-1.2,0-1.8-0.5-1.8-1.8
				H44.4z M33.5,284.5h1.7l0.6-3.2c0.2-1.2,0.8-2.3,2-2.3c0.2,0,0.5,0,0.6,0.1l0.4-1.8c-0.2-0.1-0.4-0.1-0.6-0.1
				c-0.8,0-1.6,0.7-1.9,1.5l0.2-1.3h-1.6l-0.2,1L33.5,284.5z M30.5,276.4H31c0.8,0,1.5,0.2,1.5,1.2c0,1.2-1,1.8-2,1.8h-0.6
				L30.5,276.4z M29.6,280.8h1c2,0,3.7-1.2,3.7-3.5c0-2.4-2.2-2.5-3.9-2.5H29l-1.9,9.7h1.8L29.6,280.8z"/>
			<path id="XMLID_28_" class="st0" d="M76.2,278.2c0-0.1,0-0.2,0.1-0.3s0.1-0.2,0.2-0.2c0.1-0.1,0.1-0.1,0.2-0.1
				c0.1,0,0.2-0.1,0.3-0.1s0.2,0,0.3,0.1s0.2,0.1,0.2,0.1c0.1,0.1,0.1,0.1,0.2,0.2c0,0.1,0.1,0.2,0.1,0.3c0,0.1,0,0.2-0.1,0.3
				c0,0.1-0.1,0.2-0.2,0.2c-0.1,0.1-0.1,0.1-0.2,0.1c-0.1,0-0.2,0.1-0.3,0.1s-0.2,0-0.3-0.1c-0.1,0-0.2-0.1-0.2-0.1
				c-0.1-0.1-0.1-0.1-0.2-0.2C76.3,278.4,76.2,278.3,76.2,278.2 M77.5,278.2c0-0.1,0-0.2,0-0.2c0-0.1-0.1-0.1-0.1-0.2
				c-0.1-0.1-0.1-0.1-0.2-0.1c-0.1,0-0.1,0-0.2,0c-0.1,0-0.2,0-0.2,0c-0.1,0-0.1,0.1-0.2,0.1c-0.1,0.1-0.1,0.1-0.1,0.2
				c0,0.1,0,0.1,0,0.2c0,0.1,0,0.2,0,0.2s0.1,0.1,0.1,0.2s0.1,0.1,0.2,0.1c0.1,0,0.1,0,0.2,0c0.1,0,0.2,0,0.2,0
				c0.1,0,0.1-0.1,0.2-0.1c0.1-0.1,0.1-0.1,0.1-0.2C77.5,278.4,77.5,278.3,77.5,278.2 M76.8,278.6h-0.1v-0.8H77c0.1,0,0.2,0,0.2,0.1
				c0,0,0.1,0.1,0.1,0.2c0,0.1,0,0.1-0.1,0.2c0,0-0.1,0.1-0.2,0.1l0.2,0.4h-0.1l-0.2-0.4h-0.1V278.6z M76.8,278.1H77
				c0.1,0,0.1,0,0.2,0c0,0,0-0.1,0-0.1c0,0,0-0.1,0-0.1c0,0-0.1,0-0.1,0h-0.2L76.8,278.1L76.8,278.1z"/>
		</g>
	</g>
</g>
</svg>
