<?xml version="1.0" encoding="utf-8"?>
<svg id="master-artboard" viewBox="0 0 936.8843994140625 181.60804748535156" version="1.1" xmlns="http://www.w3.org/2000/svg" x="0px" y="0px" style="enable-background:new 0 0 1400 980;" width="936.8843994140625px" height="181.60804748535156px"><rect id="ee-background" x="0" y="0" width="936.8843994140625" height="181.60804748535156" style="fill: white; fill-opacity: 0; pointer-events: none;"/><g transform="matrix(0.9999998211860657, 0, 0, 0.9999998211860657, -226.7336883544922, -395.5778503417969)"><g transform="matrix(1.5030674846625767, 0, 0, 1.5030674846625767, 209.99991596164364, -0.000004600639840646181)"><g>
	<path class="st0" d="M66.9,370.9h17.8c-1.8-16.4-5.4-48.7-8.2-73C73.3,322.2,69,354.5,66.9,370.9 M142.8,319.1&#10;&#9;&#9;c-0.1-0.1-0.2-0.3-0.3-0.4c-0.1-0.1-6.6-8.4-11.8-6c-2.1,0.9-4.1,7.9-4.5,13.5l-3.3,43.7c6.1-0.9,11.4-2.4,14.4-5.3&#10;&#9;&#9;c7.5-6.6,9.7-19.1,9.7-30v-11.4L142.8,319.1z M70.6,272.2c-2.5,0-10.8-0.3-19.5,0.4c2.1,16.1,7,52.3,10.3,77.4&#10;&#9;&#9;c3.3-25.1,8.1-61.4,10.3-77.7H70.6z M127.3,305.3c7.6-3.5,15.2,1.4,19.6,6.1c-0.3-13.6-2.5-24.3-8.2-30.9c-5.7-6.6-19.6-8-27.8-8.2&#10;&#9;&#9;c1.3,12.6,3.9,38.4,6.4,62.7c0.2-2.6,0.7-9.2,0.7-9.2C118.2,322.9,119.7,308.8,127.3,305.3 M81.9,272.2c1.8,15.8,5.7,50.6,8.5,76&#10;&#9;&#9;c3.5-25.6,8.4-60.6,10.5-76H81.9z M95.4,370.9c4.2,0,10.7,0.2,17.3-0.1c-1.7-16.2-4.9-47.6-7.4-71.8&#10;&#9;&#9;C102.1,323.2,97.7,354.7,95.4,370.9 M33.9,306.2l6.1-32c-3.7,0.9-6.9,2.2-9.1,4c-7.8,6.4-10.3,20.9-10.3,35.1v18.1&#10;&#9;&#9;c1.4-0.4,2.6-1,3.3-1.7C29.4,324.3,32.9,310.9,33.9,306.2 M41.9,307.8c-0.2,0.8-3.8,19.4-12.2,27.8c-2.2,2.2-5.5,3.6-8.8,4.3&#10;&#9;&#9;c0.8,10.1,3.2,16.4,6.5,21.2c5.4,8.4,20.5,9.7,28.7,9.9c-2.5-18.7-7.7-57.8-10.8-80.7C43.6,298.8,41.9,307.8,41.9,307.8" style="fill-rule: evenodd; clip-rule: evenodd; fill: rgb(5, 5, 5);"/>
	<path class="st0" d="M603.6,300.7c-5.4-1.5-11.1-2.6-16.6-2.6c-12.1,0-25.4,5.4-25.4,20.5c0,16.1,19.8,17.1,19.8,27.5&#10;&#9;&#9;c0,5.2-5.4,7.1-10.5,7.1c-5.9,0-10.3-2.4-14.6-5l-3.3,13.4c5.6,2.9,11.7,3.9,17.9,3.9c13.1,0,26.5-5,26.5-21.7&#10;&#9;&#9;c0-15.7-19.8-18.7-19.8-26.9c0-5.1,5.7-6.5,10.3-6.5c4.3,0,8.5,1.4,12.5,3L603.6,300.7z M561.1,299.6h-15.3l-6.3,32.4&#10;&#9;&#9;c-1.9,9.6-5.8,20.5-16.4,20.5c-4.9,0-8.3-3.6-8.3-9c0-4.7,0.9-9.1,1.7-13.5l5.7-30.3h-15.3l-6.2,31.2c-0.8,4-1.9,9.1-1.9,14&#10;&#9;&#9;c0,12.7,7.6,20.6,19.2,20.6c6.6,0,12.4-3.5,16.6-7.7l-0.8,6.2h14.9c0.2-2,0.8-5.4,1.5-9.2L561.1,299.6z M435.7,363.9h15.3l6.3-32.3&#10;&#9;&#9;c1.9-9.6,5.8-20.5,16.4-20.5c4.9,0,8.3,3.6,8.3,9c0,4.7-0.9,9.1-1.7,13.5l-5.7,30.4h15.3l6.2-31.2c0.8-4,1.9-9.1,1.9-14&#10;&#9;&#9;c0-12.7-7.6-20.6-19.2-20.6c-6.6,0-12.4,3.5-16.6,7.7l0.8-6.2H448c-0.2,2-0.8,5.4-1.5,9.2L435.7,363.9z M411,298.1&#10;&#9;&#9;c-19.7,0-34.8,16.5-34.8,38c0,18.1,10,29.4,26.7,29.4c20.8,0,35-16.5,35-39.1C437.9,308.6,426.9,298.1,411,298.1 M404.2,352.4&#10;&#9;&#9;c-8.8,0-12-6.6-12-15.1c0-11.6,6-26.2,18.1-26.2c9,0,11.6,7,11.6,15.4C422,337.4,416.1,352.4,404.2,352.4 M379.2,279.1&#10;&#9;&#9;c-6.5-2.9-13.7-3.9-20.6-3.9c-15.3,0-29.6,8-29.6,26.4c0,23.2,27.1,20.7,27.1,36.5c0,9.4-7.5,13.6-15.2,13.6&#10;&#9;&#9;c-6.8,0-13.3-2.9-19.5-6l-4.1,14.9c7.2,2.9,15,4.9,22.7,4.9c17.4,0,32.7-7.7,32.7-29.1c0-24.2-27.1-23.4-27.1-37.3&#10;&#9;&#9;c0-7.5,7.6-10,13.3-10c5.8,0,11.9,1.9,16.5,4.5L379.2,279.1z M281.1,325.4c3-8.9,7.1-15.1,16.5-15.1c6.4,0,9.7,3.9,9.7,10.7&#10;&#9;&#9;c0,1.5-0.1,2.9-0.3,4.4H281.1z M320.4,336.9c0.9-4.7,1.5-9.5,1.5-14.4c0-16.4-9.6-24.5-24.1-24.5c-19.3,0-33.4,19.2-33.4,39.2&#10;&#9;&#9;c0,19.1,11.4,28.1,28.3,28.1c6.3,0,12.8-1.6,18.7-3.6l1.9-13.2c-5.7,2.9-11.7,4.6-18,4.6c-10.5,0-16.3-4.4-16.3-16.2H320.4z&#10;&#9;&#9; M222.3,363.9h15.3L243,335c1.9-10.4,7.2-21,18-21c1.9,0,4.1,0.4,5.8,1l3.2-16.4c-1.8-0.5-3.9-0.6-5.8-0.6&#10;&#9;&#9;c-7.1,0-14.6,6.6-17.3,13.6l1.8-12.1h-14.6l-1.4,8.6L222.3,363.9z M194.8,290.4h5c6.8,0,13.3,1.9,13.3,10.7&#10;&#9;&#9;c0,10.9-9,15.9-17.8,15.9h-5.7L194.8,290.4z M186.9,330.8h9.2c17.8,0,33.6-10.4,33.6-31.5c0-21.7-20.2-22.6-34.9-22.6h-13.5&#10;&#9;&#9;l-16.9,87.2h16L186.9,330.8z" style="fill-rule: evenodd; clip-rule: evenodd; fill: rgb(5, 5, 5);"/>
	<path class="st1" d="M607.7,306.9c0-0.9,0.2-1.7,0.5-2.5c0.3-0.8,0.8-1.4,1.4-2c0.6-0.6,1.3-1,2-1.3c0.8-0.3,1.6-0.5,2.5-0.5&#10;&#9;&#9;c0.9,0,1.7,0.2,2.5,0.5c0.8,0.3,1.4,0.8,2,1.3c0.6,0.6,1,1.2,1.4,2c0.3,0.8,0.5,1.6,0.5,2.5c0,0.9-0.2,1.8-0.5,2.5&#10;&#9;&#9;c-0.3,0.8-0.8,1.4-1.4,2c-0.6,0.6-1.3,1-2,1.3c-0.8,0.3-1.6,0.5-2.5,0.5c-0.9,0-1.7-0.2-2.5-0.5c-0.8-0.3-1.5-0.8-2-1.3&#10;&#9;&#9;c-0.6-0.6-1.1-1.2-1.4-2C607.9,308.7,607.7,307.8,607.7,306.9 M619.3,306.9c0-0.7-0.1-1.4-0.4-2.1c-0.3-0.6-0.6-1.2-1.1-1.7&#10;&#9;&#9;c-0.5-0.5-1-0.8-1.6-1.1c-0.6-0.3-1.3-0.4-2-0.4c-0.7,0-1.4,0.1-2.1,0.4c-0.6,0.3-1.2,0.6-1.6,1.1c-0.5,0.5-0.8,1-1.1,1.7&#10;&#9;&#9;c-0.3,0.6-0.4,1.3-0.4,2.1c0,0.8,0.1,1.5,0.4,2.1c0.3,0.6,0.6,1.2,1.1,1.7c0.5,0.5,1,0.8,1.6,1.1c0.6,0.3,1.3,0.4,2.1,0.4&#10;&#9;&#9;c0.7,0,1.4-0.1,2-0.4c0.6-0.3,1.2-0.6,1.6-1.1c0.5-0.5,0.8-1,1.1-1.7C619.2,308.4,619.3,307.7,619.3,306.9 M612.8,310.6h-1.1v-7.3&#10;&#9;&#9;h2.8c0.9,0,1.5,0.2,2,0.5c0.4,0.3,0.6,0.9,0.6,1.6c0,0.7-0.2,1.1-0.5,1.4c-0.4,0.3-0.8,0.5-1.4,0.6l2.1,3.2H616l-1.9-3.2h-1.3&#10;&#9;&#9;V310.6z M612.8,306.5h1.3c0.7,0,1.2-0.1,1.4-0.3c0.3-0.2,0.4-0.5,0.4-0.9c0-0.3-0.1-0.6-0.3-0.8c-0.2-0.2-0.7-0.3-1.3-0.3h-1.5&#10;&#9;&#9;V306.5z" style="fill: rgb(5, 5, 5);"/>
</g></g></g></svg>