<?xml version="1.0" encoding="iso-8859-1"?>
<!-- Generator: Adobe Illustrator 19.0.0, SVG Export Plug-In . SVG Version: 6.00 Build 0)  -->
<svg version="1.1" id="Capa_1" xmlns="http://www.w3.org/2000/svg" xmlns:xlink="http://www.w3.org/1999/xlink" x="0px" y="0px"
	 viewBox="0 0 512 512" style="enable-background:new 0 0 512 512;" xml:space="preserve">
<g>
	<g>
		<g>
			<circle cx="256" cy="256" r="9.143"/>
			<path d="M310.857,256c0-30.297-24.56-54.857-54.857-54.857s-54.857,24.56-54.857,54.857s24.56,54.857,54.857,54.857
				C286.283,310.824,310.824,286.283,310.857,256z M228.571,256c0-15.148,12.28-27.429,27.429-27.429s27.429,12.28,27.429,27.429
				s-12.28,27.429-27.429,27.429C240.858,283.412,228.588,271.142,228.571,256z"/>
			<path d="M256,0C114.615,0,0,114.615,0,256s114.615,256,256,256s256-114.615,256-256C511.841,114.681,397.319,0.159,256,0z
				 M423.249,249.534c1.715-1.715,4.041-2.678,6.466-2.677c2.425-0.001,4.751,0.962,6.466,2.677
				c1.715,1.715,2.678,4.041,2.677,6.466C438.742,356.941,356.941,438.742,256,438.857c-5.049,0-9.143-4.093-9.143-9.143
				s4.093-9.143,9.143-9.143c90.848-0.102,164.469-73.724,164.571-164.571C420.571,253.575,421.534,251.249,423.249,249.534z
				 M374.857,256c0-5.049,4.093-9.143,9.143-9.143c5.049,0,9.143,4.093,9.143,9.143C393.057,331.706,331.706,393.057,256,393.143
				c-5.049,0-9.143-4.093-9.143-9.143c0-5.049,4.093-9.143,9.143-9.143C321.613,374.784,374.784,321.613,374.857,256z
				 M36.571,265.143c-5.049,0-9.143-4.093-9.143-9.143C27.57,129.822,129.822,27.57,256,27.429c5.049,0,9.143,4.093,9.143,9.143
				c0,5.049-4.093,9.143-9.143,9.143C139.917,45.846,45.846,139.917,45.714,256C45.714,261.049,41.621,265.143,36.571,265.143z
				 M82.286,265.143c-5.049,0-9.143-4.093-9.143-9.143C73.258,155.059,155.059,73.258,256,73.143c5.049,0,9.143,4.093,9.143,9.143
				c0,5.049-4.093,9.143-9.143,9.143C165.152,91.531,91.531,165.152,91.429,256C91.429,261.049,87.335,265.143,82.286,265.143z
				 M137.143,256c0,5.049-4.093,9.143-9.143,9.143s-9.143-4.093-9.143-9.143c0.086-75.706,61.436-137.057,137.143-137.143
				c5.049,0,9.143,4.093,9.143,9.143s-4.093,9.143-9.143,9.143C190.387,137.216,137.216,190.387,137.143,256z M182.857,256
				c0-40.396,32.747-73.143,73.143-73.143s73.143,32.747,73.143,73.143S296.396,329.143,256,329.143
				C215.623,329.097,182.903,296.377,182.857,256z M256,484.571c-5.049,0-9.143-4.093-9.143-9.143s4.093-9.143,9.143-9.143
				C372.083,466.154,466.154,372.083,466.286,256c0-5.049,4.093-9.143,9.143-9.143s9.143,4.093,9.143,9.143
				C484.43,382.178,382.178,484.43,256,484.571z"/>
		</g>
	</g>
</g>
<g>
</g>
<g>
</g>
<g>
</g>
<g>
</g>
<g>
</g>
<g>
</g>
<g>
</g>
<g>
</g>
<g>
</g>
<g>
</g>
<g>
</g>
<g>
</g>
<g>
</g>
<g>
</g>
<g>
</g>
</svg>
